<svg width="16" height="16" viewBox="0 0 16 16" fill="none" xmlns="http://www.w3.org/2000/svg"><path d="M0 4.42C0 1.3 1.82.229 3.071.01c.307-.053.602.102.79.352l1.86 2.48a.99.99 0 0 1-.092 1.294l-1.561 1.56a.912.912 0 0 0-.153 1.124c.412.675 1.186 1.81 2.32 2.944a16.189 16.189 0 0 0 2.945 2.32.912.912 0 0 0 1.123-.152l1.561-1.56a.99.99 0 0 1 1.294-.092l2.48 1.86c.25.187.405.482.351.789C15.771 14.179 14.7 16 11.58 16c-3.563 0-6.235-2.672-7.571-4.009C.802 9.26 0 5.805 0 4.42z" fill="#3B342B"/></svg>